# xmcd CD database file
#
# Track frame offsets:
#	150
#	11667
#	30977
#	54847
#
# Disc length: 4440 seconds
#
# Revision: 0
# Processed by: cddbd v1.5.1PL0 Copyright (c) Steve Scherf et al.
# Submitted via: CDex 1.51
#
DISCID=20115604
DTITLE=Square - 久遠 〜光と波の記憶〜
DYEAR=2003
DGENRE=Soundtrack
TTITLE0=久遠 〜光と波の記憶〜
TTITLE1=ビサイド
TTITLE2=ユウナのバラード
TTITLE3=データ
EXTD=YEAR: 2003
EXTT0=
EXTT1=
EXTT2=
EXTT3=
PLAYORDER=
